<?xml version="1.0" encoding="utf-8"?>
<!-- Generator: Adobe Illustrator 15.1.0, SVG Export Plug-In . SVG Version: 6.00 Build 0)  -->
<!DOCTYPE svg PUBLIC "-//W3C//DTD SVG 1.1//EN" "http://www.w3.org/Graphics/SVG/1.1/DTD/svg11.dtd">
<svg version="1.1" 
	xmlns="http://www.w3.org/2000/svg" 
	xmlns:xlink="http://www.w3.org/1999/xlink" x="0px" y="0px" width="40px" height="40px" viewBox="0 0 120 120" enable-background="new 0 0 120 120" xml:space="preserve">
	<g id="icon">
		<g id="grey_circle">
			<path fill="#D1D3D4" d="M60,0C26.863,0,0,26.863,0,60c0,33.137,26.863,60,60,60c33.137,0,60-26.863,60-60
			C120,26.863,93.137,0,60,0z M60.134,104.135c-24.301,0-44-19.699-44-44s19.699-44,44-44c24.302,0,44.001,19.699,44.001,44
			S84.436,104.135,60.134,104.135z"/>
		</g>
		<g id="bolt">
			<path fill="#EB1D24" d="M59.806,91.241c-4.077,0-7.381,3.302-7.381,7.381c0,4.075,3.304,7.378,7.381,7.378
			c4.069,0,7.37-3.303,7.37-7.378C67.176,94.543,63.875,91.241,59.806,91.241z"/>
			<path fill="#EB1D24" d="M79.295,37.321c-0.326-0.333-0.767-0.511-1.215-0.511c-0.203,0-0.408,0.037-0.604,0.111l-15.327,5.833
			l-1.04-26.613c-0.031-0.813-0.635-1.489-1.439-1.614c-0.087-0.013-0.175-0.02-0.261-0.02c-0.707,0-1.353,0.441-1.598,1.124
			l-15.77,43.744c-0.226,0.625-0.066,1.324,0.408,1.789c0.324,0.318,0.754,0.487,1.192,0.487c0.203,0,0.407-0.036,0.604-0.11
			l14.457-5.5l-0.478,27.273c-0.014,0.818,0.558,1.531,1.36,1.695c0.114,0.022,0.228,0.034,0.341,0.034
			c0.68,0,1.312-0.41,1.576-1.062l18.156-44.834C79.909,38.521,79.768,37.804,79.295,37.321z"/>
		</g>
		<path id="circle_1_" fill="#EB1D24" d="M60,4c30.879,0,56,25.122,56,56c0,30.879-25.121,56-56,56C29.122,116,4,90.879,4,60
		C4,29.122,29.122,4,60,4 M60,0C26.863,0,0,26.863,0,60c0,33.137,26.863,60,60,60c33.137,0,60-26.863,60-60
		C120,26.863,93.137,0,60,0L60,0z"/>
	</g>
	<g id="knockout" display="none">
		<path display="inline" fill="#EB1D24" d="M60,0C26.863,0,0,26.863,0,60c0,33.137,26.863,60,60,60c33.137,0,60-26.863,60-60
		C120,26.863,93.137,0,60,0z M59.806,91.241c-4.077,0-7.381,3.302-7.381,7.381c0,2.002,0.8,3.814,2.095,5.144
		c-21.647-2.759-38.386-21.233-38.386-43.631c0-23.451,18.346-42.61,41.467-43.923L42.041,59.376
		c-0.226,0.625-0.066,1.324,0.408,1.789c0.324,0.318,0.754,0.487,1.192,0.487c0.203,0,0.407-0.036,0.604-0.11l14.457-5.5
		l-0.478,27.273c-0.014,0.818,0.558,1.531,1.36,1.695c0.114,0.022,0.228,0.034,0.341,0.034c0.68,0,1.312-0.41,1.576-1.062
		l18.156-44.834c0.253-0.627,0.111-1.344-0.361-1.828c-0.326-0.333-0.767-0.511-1.215-0.511c-0.203,0-0.408,0.037-0.604,0.111
		l-15.327,5.833l-1.039-26.597c23.85,0.521,43.025,20.002,43.025,43.976c0,22.659-17.129,41.309-39.143,43.728
		c1.348-1.337,2.184-3.19,2.184-5.24C67.176,94.543,63.875,91.241,59.806,91.241z"/>
	</g>
</svg>
